<svg xmlns="http://www.w3.org/2000/svg" xmlns:xlink="http://www.w3.org/1999/xlink" width="558.13pt" height="210.02pt" viewBox="0 0 558.13 210.02" version="1.1">
<defs>
<clipPath id="clip1">
  <path d="M 125 186 L 142 186 L 142 210.019531 L 125 210.019531 Z M 125 186 "/>
</clipPath>
<clipPath id="clip2">
  <path d="M 0 155 L 558.128906 155 L 558.128906 160 L 0 160 Z M 0 155 "/>
</clipPath>
</defs>
<g id="surface1">
<path style=" stroke:none;fill-rule:nonzero;fill:rgb(86.299133%,14.099121%,17.298889%);fill-opacity:1;" d="M 533.714844 62.523438 C 535.703125 62.554688 537.226563 62.9375 538.367188 63.671875 C 539.539063 64.402344 540.664063 66.027344 541.71875 68.46875 C 542.789063 70.933594 542.351563 72.761719 540.300781 73.867188 C 538.285156 75 536.441406 74.8125 534.816406 73.492188 C 533.222656 72.175781 531.53125 72.070313 529.738281 73.121094 C 527.953125 74.148438 526.265625 75.292969 524.460938 76.304688 C 522.75 77.328125 520.570313 78.785156 518.0625 80.769531 C 515.527344 82.785156 512.863281 85.261719 510.171875 88.230469 C 507.5 91.203125 506.027344 92.976563 505.742188 93.804688 C 505.457031 94.589844 506.140625 94.496094 507.828125 93.484375 C 509.480469 92.445313 512.015625 90.820313 515.433594 88.628906 C 518.871094 86.402344 523.21875 84.128906 528.421875 81.425781 C 533.625 78.71875 536.902344 77.503906 538.269531 77.894531 C 539.640625 78.265625 540.8125 79.144531 541.820313 80.382813 C 542.847656 81.613281 543.398438 82.726563 543.519531 83.664063 C 543.671875 84.675781 543.53125 85.476563 543.078125 86.097656 C 542.605469 86.753906 542.074219 88.113281 541.4375 90.25 C 540.8125 92.335938 540.914063 94.335938 541.605469 96.191406 C 542.3125 98.027344 543.273438 99.226563 544.347656 99.839844 C 545.457031 100.511719 546.929688 100.585938 548.832031 100.078125 C 550.75 99.574219 553.101563 97.921875 555.898438 95.082031 C 558.71875 92.214844 558.585938 92.816406 555.527344 96.882813 C 552.503906 100.933594 550.117188 103.558594 548.34375 104.71875 C 546.550781 105.851563 545.171875 106.441406 544.1875 106.488281 C 543.210938 106.542969 541.878906 106.328125 540.300781 105.824219 C 538.710938 105.304688 537.175781 104.464844 535.808594 103.320313 C 534.386719 102.136719 533.261719 100.71875 532.460938 99.003906 C 531.65625 97.308594 531.101563 96.03125 530.8125 95.257813 C 530.539063 94.40625 529.898438 93.511719 528.839844 92.59375 C 527.800781 91.65625 526.558594 91.539063 525.070313 92.167969 C 523.59375 92.816406 521.03125 94.394531 517.230469 96.910156 C 513.527344 99.414063 510.089844 101.492188 506.90625 102.984375 C 503.683594 104.464844 500.753906 105.328125 498.171875 105.824219 C 494.796875 106.441406 492.953125 106.929688 490.855469 103.96875 C 489.949219 102.722656 489.433594 101.390625 489.308594 99.988281 C 489.175781 98.535156 489.402344 97.132813 489.96875 95.710938 C 490.546875 94.308594 492.855469 91.496094 496.804688 87.136719 C 505.136719 77.894531 520.898438 62.273438 533.714844 62.523438 "/>
<path style=" stroke:none;fill-rule:nonzero;fill:rgb(86.299133%,14.099121%,17.298889%);fill-opacity:1;" d="M 455.171875 31.738281 C 456.65625 30.5 458.683594 30.296875 461.257813 31.097656 C 463.886719 31.9375 464.296875 35.710938 462.644531 42.488281 C 461.003906 49.144531 459.183594 55.820313 457.222656 62.441406 C 455.257813 68.984375 455.695313 72.214844 458.519531 72.144531 C 461.382813 72.070313 464.058594 71.28125 466.472656 69.746094 C 468.941406 68.160156 471.628906 66.441406 474.628906 64.550781 C 477.59375 62.644531 480.4375 60.949219 483.0625 59.511719 C 485.714844 58.019531 487.332031 58.339844 487.882813 60.550781 C 488.433594 62.777344 488.300781 64.695313 487.382813 66.203125 C 486.433594 67.777344 482.699219 70.457031 476.09375 74.09375 C 469.5 77.71875 466.367188 79.8125 466.695313 80.753906 C 467.011719 81.6875 467.371094 82.609375 467.714844 83.59375 C 468.070313 84.515625 469.527344 86.648438 472.109375 89.898438 C 474.679688 93.148438 478.101563 96.601563 482.289063 100.335938 C 486.542969 104.082031 496.902344 95.027344 496.457031 95.871094 C 495.132813 98.320313 492.597656 100.265625 490.527344 102.636719 C 487.863281 105.691406 485.464844 108.929688 481.6875 109.089844 C 480.105469 109.183594 477.65625 107.878906 474.410156 105.238281 C 471.160156 102.601563 468.003906 99.472656 464.980469 95.753906 C 461.988281 92.054688 459.476563 89.140625 457.378906 86.976563 C 455.269531 84.777344 453.820313 83.476563 452.996094 82.917969 C 452.15625 82.378906 450.671875 84.925781 448.445313 90.515625 C 446.234375 96.078125 444.234375 100.1875 442.523438 102.882813 C 440.84375 105.546875 438.988281 106.542969 436.890625 105.824219 C 434.878906 105.121094 433.554688 104.464844 433.03125 103.96875 C 432.402344 103.425781 432.347656 102.503906 432.722656 101.242188 C 433.144531 99.945313 434.402344 97.585938 436.574219 94.191406 C 438.765625 90.722656 441.3125 83.753906 444.1875 73.214844 C 447.066406 62.566406 448.488281 58.777344 449.222656 54.34375 C 449.953125 49.921875 450.023438 50.917969 447.792969 54.222656 C 445.578125 57.550781 441.066406 60.886719 435.863281 66.375 C 430.742188 71.746094 430.476563 67.925781 434.488281 63.402344 C 438.589844 58.753906 441.402344 55.132813 443.070313 52.730469 C 444.769531 50.359375 446.84375 46.585938 449.277344 41.449219 C 451.71875 36.296875 453.730469 33.015625 455.171875 31.738281 "/>
<path style=" stroke:none;fill-rule:nonzero;fill:rgb(86.299133%,14.099121%,17.298889%);fill-opacity:1;" d="M 400.808594 62.628906 C 402.453125 62.46875 404.253906 62.671875 406.171875 63.140625 C 408.152344 63.640625 409.6875 64.257813 410.882813 65.148438 C 412.039063 65.976563 413.113281 67.519531 414.175781 69.730469 C 415.257813 71.984375 414.769531 73.304688 412.808594 73.769531 C 410.785156 74.210938 408.972656 73.664063 407.324219 72.242188 C 405.691406 70.839844 403.988281 70.347656 402.167969 70.828125 C 400.433594 71.238281 398.679688 71.734375 396.914063 72.175781 C 395.226563 72.613281 393.0625 73.429688 390.53125 74.574219 C 387.972656 75.730469 385.378906 77.316406 382.679688 79.261719 C 380.011719 81.222656 378.5 82.476563 378.179688 83.0625 C 377.886719 83.691406 378.617188 83.710938 380.269531 83.152344 C 381.960938 82.597656 384.53125 81.746094 387.945313 80.558594 C 393.441406 78.660156 411.363281 72.71875 415.390625 78.355469 C 418.386719 82.582031 412.214844 87.5 414.117188 91.875 C 419.429688 104.101563 436.40625 87.738281 442.699219 84.0625 C 445.558594 82.40625 440.863281 87.03125 437.851563 89.566406 C 429.402344 96.601563 418.652344 105.316406 408.253906 96.472656 C 406.835938 95.257813 405.714844 93.910156 404.917969 92.335938 C 403.390625 89.328125 401.875 84.605469 397.535156 85.230469 C 396.027344 85.464844 393.488281 86.3125 389.75 87.738281 C 386.039063 89.152344 382.59375 90.222656 379.335938 90.96875 C 376.121094 91.714844 373.21875 92.070313 370.699219 92.125 C 368.109375 92.179688 366.480469 92.054688 365.769531 91.789063 C 364.992188 91.496094 364.191406 90.777344 363.304688 89.566406 C 362.425781 88.378906 361.925781 87.179688 361.757813 85.914063 C 361.597656 84.6875 361.820313 83.476563 362.425781 82.332031 C 363.023438 81.171875 365.34375 79.101563 369.269531 76.011719 C 373.167969 72.960938 376.949219 70.535156 380.605469 68.746094 C 384.273438 66.976563 388.160156 65.523438 392.214844 64.445313 C 396.320313 63.378906 399.21875 62.761719 400.808594 62.628906 "/>
<path style=" stroke:none;fill-rule:nonzero;fill:rgb(86.299133%,14.099121%,17.298889%);fill-opacity:1;" d="M 350.921875 36.777344 C 354.445313 34.21875 360.515625 37.347656 361.105469 41.710938 C 361.304688 43.027344 361.5625 43.984375 360.785156 45.007813 C 359.992188 46.027344 359.292969 47.4375 358.589844 49.179688 C 357.871094 50.964844 356.941406 53.421875 355.792969 56.617188 C 354.640625 59.789063 354.726563 61.765625 356.015625 62.421875 C 357.320313 63.070313 359.445313 63.886719 362.585938 64.882813 C 366.5 66.109375 371.78125 67.242188 374.328125 67.972656 L 375.449219 70.574219 C 375.304688 70.226563 371.808594 69.949219 369.324219 69.816406 C 363.5 69.566406 358.484375 68.03125 352.40625 68.414063 C 351.195313 68.484375 349.191406 71.121094 346.382813 76.238281 C 343.554688 81.367188 341.761719 84.808594 340.882813 86.550781 C 340.011719 88.289063 365.550781 79.078125 365.921875 80.167969 C 366.1875 81.03125 359.914063 82.875 352.75 85.875 C 345.558594 88.886719 337.492188 93.058594 334.277344 91.789063 C 332.792969 91.230469 331.265625 90.472656 329.992188 89.84375 C 328.738281 89.242188 328.738281 87.484375 330.070313 84.585938 C 331.359375 81.703125 333.152344 78.355469 335.414063 74.574219 C 337.71875 70.75 338.925781 68.414063 339.125 67.414063 C 339.363281 66.453125 338.4375 65.894531 336.40625 65.804688 C 334.324219 65.707031 332.53125 65.511719 330.929688 65.253906 C 329.347656 64.988281 328.558594 64.082031 328.570313 62.566406 C 328.605469 61.003906 329.875 59.992188 332.464844 59.511719 C 335.03125 58.996094 337.289063 58.898438 339.242188 59.261719 C 344.058594 60.085938 346.527344 50.964844 348.515625 43.984375 C 349.414063 40.789063 349.527344 37.816406 350.921875 36.777344 "/>
<path style=" stroke:none;fill-rule:nonzero;fill:rgb(86.299133%,14.099121%,17.298889%);fill-opacity:1;" d="M 318.148438 54.929688 C 319.222656 57.230469 318.441406 58.675781 316.433594 59.03125 C 314.402344 59.378906 312.582031 58.777344 310.941406 57.257813 C 307.769531 54.273438 304.261719 55.886719 300.589844 56.847656 C 298.847656 57.300781 296.695313 58.125 294.179688 59.339844 C 291.617188 60.59375 288.960938 62.273438 286.3125 64.5 C 283.589844 66.773438 282.140625 68.324219 281.875 69.027344 C 281.582031 69.773438 282.265625 69.730469 283.953125 68.964844 C 285.585938 68.21875 288.160156 67.152344 291.570313 65.804688 C 295.015625 64.472656 299.328125 63.230469 304.523438 62.203125 C 309.742188 61.191406 312.875 61.988281 314.394531 61.777344 C 317.683594 61.324219 320.296875 63.816406 319.648438 67.800781 C 319.523438 68.628906 319.636719 69.214844 319.167969 69.628906 C 318.699219 70.003906 318.203125 70.988281 317.578125 72.523438 C 316.9375 74.09375 317.023438 75.730469 317.742188 77.34375 C 318.457031 78.996094 319.417969 80.167969 320.480469 80.929688 C 321.53125 81.6875 323.039063 82.144531 324.980469 82.199219 C 326.875 82.234375 329.253906 81.515625 332.03125 79.992188 C 334.828125 78.480469 334.703125 78.917969 331.640625 81.304688 C 328.570313 83.710938 326.234375 85.183594 324.414063 85.714844 C 322.675781 86.210938 321.296875 86.382813 320.3125 86.195313 C 319.273438 86.019531 318.015625 85.582031 316.433594 84.890625 C 309.988281 82.023438 310.019531 78.625 307.796875 72.683594 C 306.980469 70.441406 303.644531 70.1875 301.195313 70.605469 C 299.671875 70.882813 297.097656 71.824219 293.378906 73.492188 C 289.632813 75.160156 286.199219 76.53125 282.953125 77.679688 C 279.726563 78.851563 276.828125 79.609375 274.3125 79.992188 C 270.941406 80.460938 269.085938 80.898438 266.980469 78.046875 C 266.066406 76.8125 265.527344 75.527344 265.386719 74.148438 C 265.242188 72.703125 265.5 71.28125 266.09375 69.878906 C 266.695313 68.46875 268.902344 65.707031 272.902344 61.871094 C 276.800781 58.125 280.550781 55.132813 284.226563 53.023438 C 287.847656 50.945313 291.765625 49.515625 295.894531 48.53125 C 304.566406 46.382813 313.941406 45.894531 318.148438 54.929688 "/>
<path style=" stroke:none;fill-rule:nonzero;fill:rgb(86.299133%,14.099121%,17.298889%);fill-opacity:1;" d="M 221.351563 40.085938 C 222.84375 39.398438 224.753906 39.484375 227.042969 40.335938 C 229.328125 41.1875 229.851563 42.867188 228.519531 45.355469 C 227.21875 47.875 225.09375 52.074219 222.121094 57.898438 C 219.117188 63.84375 218.78125 65.414063 221.183594 62.671875 C 223.566406 59.949219 226.402344 57.210938 229.785156 54.355469 C 233.136719 51.566406 235.578125 49.808594 237.070313 49.0625 C 238.550781 48.316406 240.128906 47.714844 241.886719 47.375 C 243.640625 47.011719 245.5625 47.128906 247.8125 47.742188 C 249.949219 48.316406 251.84375 49.996094 253.386719 52.691406 C 254.957031 55.398438 255.808594 59.714844 255.910156 65.722656 C 256.019531 71.628906 257.648438 74.585938 260.894531 74.558594 C 266.550781 74.488281 273.390625 71.121094 277.039063 66.773438 C 278.566406 64.976563 279.238281 64.550781 279.015625 65.414063 C 278.804688 66.285156 277.972656 67.519531 276.558594 69.097656 C 272.238281 73.882813 262.207031 81.941406 255.589844 82.011719 C 252.199219 82.011719 249.757813 80.886719 248.25 78.453125 C 246.742188 76.050781 245.792969 72.117188 245.277344 66.726563 C 244.792969 61.296875 244.050781 58.527344 242.878906 58.429688 C 237.3125 57.976563 228.167969 66.871094 224.976563 70.640625 C 221.789063 74.386719 219.191406 77.601563 217.191406 80.195313 C 215.128906 82.917969 213.289063 84.632813 211.710938 85.351563 C 210.074219 86.0625 208.738281 85.832031 207.71875 84.605469 C 206.710938 83.398438 206.390625 81.820313 206.675781 79.859375 C 206.988281 77.878906 207.566406 74.878906 208.480469 70.800781 C 209.402344 66.710938 210.738281 62.351563 212.421875 57.808594 C 214.125 53.261719 213.746094 51.859375 211.277344 53.609375 C 210.96875 53.820313 210.636719 54.078125 210.273438 54.34375 C 210.1875 54.40625 210.074219 54.503906 210.003906 54.566406 C 207.527344 56.539063 207.117188 56.40625 207.832031 55.222656 C 209.4375 52.472656 216.898438 44.082031 218.113281 42.429688 C 218.78125 41.5625 219.886719 40.800781 221.351563 40.085938 "/>
<path style=" stroke:none;fill-rule:nonzero;fill:rgb(86.299133%,14.099121%,17.298889%);fill-opacity:1;" d="M 158.21875 61.910156 C 160.722656 51.957031 163.199219 46.96875 165.550781 46.851563 C 167.972656 46.761719 169.722656 47.519531 170.921875 49.179688 C 172.164063 50.917969 171.980469 53.15625 170.542969 56.03125 C 169.085938 58.941406 168.957031 60.230469 170.160156 59.890625 C 171.300781 59.554688 172.839844 58.660156 174.765625 57.210938 C 176.65625 55.738281 178.480469 54.609375 180.214844 53.699219 C 184.074219 51.753906 186.160156 51.355469 190.527344 52.144531 C 193.546875 52.703125 196.390625 53.699219 199.066406 55.074219 C 201.316406 56.191406 204.324219 57.859375 207.664063 55.222656 C 207.789063 55.136719 209.054688 53.378906 209.203125 53.34375 C 209.730469 53.183594 209.191406 54.769531 209.753906 54.566406 L 210.234375 54.40625 C 207.289063 56.804688 203.511719 61.414063 199.289063 59.21875 C 189.042969 53.820313 179.027344 61.925781 170.921875 69.773438 C 168.824219 71.824219 166.871094 75.027344 165.070313 79.289063 C 163.242188 83.621094 161.863281 87.191406 160.90625 90.074219 C 159.949219 92.960938 159.085938 95.363281 158.320313 97.28125 C 157.59375 99.148438 156.085938 100.363281 153.777344 100.90625 C 151.484375 101.425781 150.007813 100.851563 149.242188 99.269531 C 148.464844 97.671875 148.300781 96.574219 148.699219 95.960938 C 149.078125 95.375 150.195313 92.054688 151.929688 85.964844 C 153.644531 79.890625 155.710938 71.824219 158.21875 61.910156 "/>
<path style=" stroke:none;fill-rule:nonzero;fill:rgb(86.299133%,14.099121%,17.298889%);fill-opacity:1;" d="M 124.980469 53.273438 C 126.605469 52.542969 128.371094 52.179688 130.339844 52.144531 C 132.3125 52.132813 133.84375 52.453125 135.003906 53.15625 C 136.140625 53.859375 137.292969 55.460938 138.34375 57.898438 C 139.425781 60.40625 138.949219 62.21875 136.910156 63.460938 C 134.90625 64.738281 133.0625 64.722656 131.417969 63.460938 C 129.835938 62.203125 128.144531 62.191406 126.332031 63.417969 C 124.589844 64.578125 122.847656 65.832031 121.082031 67.082031 C 119.351563 68.335938 117.191406 70.199219 114.683594 72.640625 C 112.144531 75.101563 109.488281 78.222656 106.804688 81.820313 C 104.109375 85.464844 102.625 87.738281 102.367188 88.628906 C 102.078125 89.578125 102.734375 89.355469 104.4375 87.910156 C 106.089844 86.53125 108.632813 84.351563 112.046875 81.453125 C 115.480469 78.585938 119.824219 75.492188 125.023438 72.175781 C 127.652344 70.535156 135.570313 65.121094 138.890625 69.097656 C 139.917969 70.316406 140.011719 72.292969 140.136719 73.253906 C 140.277344 74.253906 140.167969 75.089844 139.71875 75.746094 C 139.25 76.449219 138.691406 77.824219 138.0625 80.007813 C 137.429688 82.21875 137.554688 84.261719 138.234375 86.050781 C 138.921875 87.871094 139.882813 89.019531 140.96875 89.566406 C 142.070313 90.074219 143.550781 90.074219 145.507813 89.390625 C 147.375 88.777344 149.707031 86.929688 152.519531 83.941406 C 155.363281 80.898438 155.179688 81.558594 152.140625 85.726563 C 149.097656 89.957031 146.726563 92.753906 144.953125 94.070313 C 140.96875 97 136.667969 97.148438 132.425781 94.121094 C 129.898438 92.3125 127.960938 89.363281 127.4375 86.371094 C 126.839844 82.902344 124.238281 81.851563 121.695313 83.824219 C 120.332031 84.890625 117.648438 86.753906 113.867188 90.152344 C 110.152344 93.484375 106.6875 96.296875 103.519531 98.5625 C 100.28125 100.867188 97.355469 102.53125 94.816406 103.648438 C 91.71875 104.960938 89.695313 106.320313 87.472656 103.238281 C 86.558594 101.988281 86.082031 100.601563 85.921875 98.988281 C 85.792969 97.390625 86.023438 95.738281 86.59375 93.988281 C 87.171875 92.214844 89.472656 88.566406 93.429688 82.902344 C 97.34375 77.328125 101.125 72.613281 104.765625 68.816406 C 108.4375 64.988281 112.28125 61.675781 116.375 58.777344 C 120.488281 55.886719 123.332031 54.007813 124.980469 53.273438 "/>
<path style=" stroke:none;fill-rule:nonzero;fill:rgb(86.299133%,14.099121%,17.298889%);fill-opacity:1;" d="M 51.105469 0.855469 C 52.246094 -0.0507813 53.554688 -0.230469 55 0.273438 C 58.097656 1.367188 59.648438 2.9375 59.425781 7.472656 C 59.371094 8.789063 59.105469 12.492188 55.976563 19.464844 C 52.859375 26.382813 49.621094 33.882813 46.28125 42.09375 C 42.960938 50.289063 40.34375 56.980469 38.382813 62.191406 C 36.453125 67.375 35.875 70.476563 36.644531 71.519531 C 37.417969 72.523438 40.152344 71 44.917969 66.976563 C 49.699219 62.921875 53.96875 59.21875 57.855469 55.675781 C 61.683594 52.179688 66.976563 47.039063 73.730469 40.085938 C 80.445313 33.179688 84.910156 28.578125 87.1875 26.621094 C 89.515625 24.609375 91.351563 23.398438 92.671875 22.914063 C 93.929688 22.433594 95.53125 22.394531 97.316406 22.902344 C 99.09375 23.355469 100.367188 24.207031 101.105469 25.34375 C 101.84375 26.5 101.84375 27.75 101.105469 29.207031 C 100.367188 30.617188 99.308594 32.285156 97.921875 34.140625 C 96.53125 36.03125 94.472656 37.734375 91.910156 39.296875 C 78.769531 47.375 68.183594 62.363281 56.042969 72.335938 C 43.167969 82.875 69.390625 92.578125 77.378906 93.09375 C 79.085938 93.207031 80.671875 93.511719 82.035156 93.910156 C 83.464844 94.335938 84.578125 94.882813 85.339844 95.667969 C 86.0625 96.429688 85.871094 97.335938 84.738281 98.433594 C 83.566406 99.546875 82.277344 100.292969 80.671875 100.65625 C 72.207031 102.5625 65.542969 101.640625 57.355469 98.800781 C 52.65625 97.148438 49.226563 93.765625 44.753906 91.976563 C 43.433594 91.441406 41.003906 90.152344 37.589844 87.941406 C 34.101563 85.671875 31.824219 84.742188 30.671875 85.351563 C 29.574219 85.902344 28.183594 89.273438 26.570313 95.363281 C 25.390625 99.925781 21.667969 110.820313 17.839844 120.582031 C 14.472656 129.175781 11.136719 136.902344 7.464844 138.648438 C 2.957031 140.726563 -0.75 136.394531 0.421875 132.730469 C 4.886719 118.695313 12.242188 99.324219 17.367188 85.554688 L 43.390625 15.535156 C 43.945313 14 44.324219 12.082031 44.972656 9.988281 C 45.628906 7.898438 46.546875 6.019531 47.648438 4.5 C 48.777344 2.9375 49.957031 1.75 51.105469 0.855469 "/>
<path style=" stroke:none;fill-rule:nonzero;fill:rgb(13.699341%,12.199402%,12.5%);fill-opacity:1;" d="M 154.898438 135.503906 C 154.898438 140.582031 157.65625 144.019531 162.777344 144.019531 C 169.707031 144.019531 173.855469 137.558594 173.855469 130.976563 C 173.855469 125.925781 171.101563 122.5 165.96875 122.5 C 159.050781 122.5 154.898438 128.925781 154.898438 135.503906 Z M 156.972656 135.335938 C 156.972656 130.214844 160.359375 124.269531 165.921875 124.269531 C 169.878906 124.269531 171.800781 127.285156 171.800781 131.164063 C 171.800781 136.289063 168.421875 142.21875 162.847656 142.21875 C 158.871094 142.21875 156.972656 139.214844 156.972656 135.335938 Z M 180.066406 143.648438 L 182.027344 143.648438 L 183.523438 136.4375 C 184.25 132.949219 185.996094 129.683594 189.273438 129.683594 C 191.195313 129.683594 192.1875 130.84375 192.1875 132.628906 C 192.1875 133.640625 192.097656 134.28125 191.863281 135.277344 L 190.140625 143.648438 L 192.109375 143.648438 L 193.816406 135.640625 C 194.023438 134.679688 194.269531 133.535156 194.269531 132.507813 C 194.269531 129.628906 192.21875 128.078125 189.480469 128.078125 C 187.617188 128.078125 185.6875 129.132813 184.660156 130.730469 L 184.597656 130.730469 C 184.753906 130.214844 184.835938 129.410156 184.9375 128.441406 L 183.050781 128.441406 C 182.980469 129.21875 182.859375 129.851563 182.6875 130.855469 Z M 214.789063 136.582031 C 214.875 135.640625 214.996094 134.679688 214.996094 133.757813 C 214.996094 130.304688 213.203125 128.078125 209.648438 128.078125 C 204.730469 128.078125 201.769531 132.71875 201.769531 137.8125 C 201.769531 141.890625 204.46875 144.019531 208.011719 144.019531 C 210.496094 144.019531 211.667969 143.53125 212.546875 143.195313 L 212.695313 141.382813 C 211.496094 141.890625 210.125 142.40625 208.246094 142.40625 C 205.585938 142.40625 203.636719 140.726563 203.636719 137.8125 C 203.636719 137.398438 203.667969 136.980469 203.726563 136.582031 Z M 204.054688 134.957031 C 204.574219 132.214844 206.710938 129.683594 209.648438 129.683594 C 212.054688 129.683594 213.109375 131.34375 213.109375 133.8125 C 213.109375 134.183594 213.070313 134.558594 213.035156 134.957031 Z M 228.15625 143.183594 C 229.613281 143.796875 230.988281 144.019531 232.578125 144.019531 C 235.527344 144.019531 238.683594 142.6875 238.683594 139.25 C 238.683594 135.210938 232.59375 134.882813 232.59375 132.292969 C 232.59375 130.171875 234.683594 129.683594 236.175781 129.683594 C 237.3125 129.683594 238.5625 130.027344 239.558594 130.597656 L 240.183594 128.839844 C 238.929688 128.324219 237.621094 128.078125 236.277344 128.078125 C 233.8125 128.078125 230.628906 129.320313 230.628906 132.320313 C 230.628906 136.199219 236.628906 136.054688 236.628906 139.367188 C 236.628906 141.730469 234.140625 142.40625 232.332031 142.40625 C 231.058594 142.40625 229.796875 141.96875 228.726563 141.277344 Z M 250.171875 128.441406 L 247.191406 128.441406 L 246.789063 130.054688 L 249.808594 130.054688 L 248.363281 136.800781 C 248.207031 137.449219 247.675781 139.863281 247.675781 141.167969 C 247.675781 142.835938 248.863281 144.019531 250.988281 144.019531 C 251.765625 144.019531 252.335938 143.859375 252.902344 143.582031 L 253.078125 141.996094 C 252.542969 142.273438 252.023438 142.40625 251.464844 142.40625 C 250.371094 142.40625 249.726563 141.753906 249.726563 140.546875 C 249.726563 139.570313 249.980469 138.570313 250.171875 137.558594 L 251.792969 130.054688 L 255.699219 130.054688 L 256.085938 128.441406 L 252.128906 128.441406 L 253.050781 124.300781 L 250.90625 125.058594 Z M 272.691406 135.933594 C 272.949219 134.75 273.070313 133.640625 273.070313 133.023438 C 273.070313 129.878906 271.355469 128.078125 268.058594 128.078125 C 266.265625 128.078125 264.53125 128.664063 263.476563 129.117188 L 263.265625 131.015625 C 264.285156 130.507813 265.996094 129.683594 267.765625 129.683594 C 269.847656 129.683594 271.003906 130.917969 271.003906 132.964844 C 271.003906 133.609375 270.964844 134.050781 270.921875 134.503906 C 270.328125 134.429688 269.632813 134.386719 268.882813 134.386719 C 265.144531 134.386719 260.136719 135.292969 260.136719 139.742188 C 260.136719 142.261719 262.132813 144.019531 264.484375 144.019531 C 266.722656 144.019531 268.382813 143.316406 269.679688 141.425781 L 269.734375 141.425781 C 269.582031 142.058594 269.527344 142.847656 269.429688 143.648438 L 271.3125 143.648438 C 271.367188 142.625 271.585938 141.207031 271.871094 140.023438 Z M 262.1875 139.714844 C 262.1875 136.394531 266.304688 135.996094 268.832031 135.996094 C 269.464844 135.996094 270.058594 136.054688 270.691406 136.054688 C 270.265625 139.25 268.664063 142.40625 265.144531 142.40625 C 263.625 142.40625 262.1875 141.445313 262.1875 139.714844 Z M 284.601563 128.441406 L 281.609375 128.441406 L 281.1875 130.054688 L 284.238281 130.054688 L 282.773438 136.800781 C 282.613281 137.449219 282.074219 139.863281 282.074219 141.167969 C 282.074219 142.835938 283.269531 144.019531 285.402344 144.019531 C 286.171875 144.019531 286.742188 143.859375 287.300781 143.582031 L 287.480469 141.996094 C 286.953125 142.273438 286.4375 142.40625 285.878906 142.40625 C 284.78125 142.40625 284.148438 141.753906 284.148438 140.546875 C 284.148438 139.570313 284.386719 138.570313 284.601563 137.558594 L 286.199219 130.054688 L 290.117188 130.054688 L 290.480469 128.441406 L 286.53125 128.441406 L 287.46875 124.300781 L 285.304688 125.058594 Z M 308.300781 136.582031 C 308.382813 135.640625 308.492188 134.679688 308.492188 133.757813 C 308.492188 130.304688 306.695313 128.078125 303.121094 128.078125 C 298.226563 128.078125 295.238281 132.71875 295.238281 137.8125 C 295.238281 141.890625 297.960938 144.019531 301.523438 144.019531 C 303.992188 144.019531 305.160156 143.53125 306.039063 143.195313 L 306.199219 141.382813 C 305 141.890625 303.632813 142.40625 301.769531 142.40625 C 299.070313 142.40625 297.152344 140.726563 297.152344 137.8125 C 297.152344 137.398438 297.164063 136.980469 297.214844 136.582031 Z M 297.542969 134.957031 C 298.058594 132.214844 300.199219 129.683594 303.121094 129.683594 C 305.570313 129.683594 306.605469 131.34375 306.605469 133.8125 C 306.605469 134.183594 306.546875 134.558594 306.515625 134.957031 Z M 315.210938 143.648438 L 317.660156 143.648438 L 318.171875 141.152344 L 315.730469 141.152344 Z M 336.257813 143.648438 L 338.171875 143.648438 L 342.105469 125.082031 L 342.167969 125.082031 L 346.074219 143.648438 L 347.761719 143.648438 L 359.636719 125.082031 L 359.699219 125.082031 L 355.660156 143.648438 L 357.675781 143.648438 L 362.113281 122.855469 L 358.910156 122.855469 L 347.351563 141.152344 L 343.542969 122.855469 L 340.660156 122.855469 Z M 379.441406 135.933594 C 379.714844 134.75 379.832031 133.640625 379.832031 133.023438 C 379.832031 129.878906 378.085938 128.078125 374.828125 128.078125 C 373.035156 128.078125 371.3125 128.664063 370.226563 129.117188 L 370.015625 131.015625 C 371.035156 130.507813 372.769531 129.683594 374.527344 129.683594 C 376.609375 129.683594 377.785156 130.917969 377.785156 132.964844 C 377.785156 133.609375 377.746094 134.050781 377.695313 134.503906 C 377.089844 134.429688 376.398438 134.386719 375.640625 134.386719 C 371.90625 134.386719 366.890625 135.292969 366.890625 139.742188 C 366.890625 142.261719 368.894531 144.019531 371.25 144.019531 C 373.488281 144.019531 375.164063 143.316406 376.445313 141.425781 L 376.496094 141.425781 C 376.34375 142.058594 376.296875 142.847656 376.1875 143.648438 L 378.074219 143.648438 C 378.128906 142.625 378.347656 141.207031 378.632813 140.023438 Z M 368.949219 139.714844 C 368.949219 136.394531 373.0625 135.996094 375.605469 135.996094 C 376.226563 135.996094 376.832031 136.054688 377.460938 136.054688 C 377.027344 139.25 375.421875 142.40625 371.90625 142.40625 C 370.386719 142.40625 368.949219 141.445313 368.949219 139.714844 Z M 386.96875 143.648438 L 388.949219 143.648438 L 390.441406 136.4375 C 391.132813 132.949219 392.917969 129.683594 396.183594 129.683594 C 398.089844 129.683594 399.113281 130.84375 399.113281 132.628906 C 399.113281 133.640625 399.003906 134.28125 398.769531 135.277344 L 397.046875 143.648438 L 399.023438 143.648438 L 400.726563 135.640625 C 400.925781 134.679688 401.164063 133.535156 401.164063 132.507813 C 401.164063 129.628906 399.132813 128.078125 396.40625 128.078125 C 394.523438 128.078125 392.625 129.132813 391.558594 130.730469 L 391.503906 130.730469 C 391.65625 130.214844 391.761719 129.410156 391.851563 128.441406 L 389.945313 128.441406 C 389.898438 129.21875 389.777344 129.851563 389.597656 130.855469 Z M 422.175781 128.441406 L 420.144531 128.441406 L 413.011719 141.542969 L 412.953125 141.542969 L 411.402344 128.441406 L 409.449219 128.441406 L 411.585938 143.679688 L 410.308594 146.097656 C 409.730469 147.3125 408.730469 148.484375 407.414063 148.484375 C 406.953125 148.484375 406.519531 148.394531 406.1875 148.074219 L 405.746094 149.671875 C 406.320313 150.019531 406.90625 150.082031 407.566406 150.082031 C 409.617188 150.082031 410.722656 148.953125 411.648438 147.234375 Z M 437.335938 143.648438 L 439.574219 143.648438 L 446.695313 130.507813 L 446.753906 130.507813 L 448.308594 143.648438 L 450.605469 143.648438 L 458.492188 128.441406 L 456.394531 128.441406 L 449.800781 141.585938 L 449.730469 141.585938 L 448.28125 128.441406 L 446.027344 128.441406 L 438.878906 141.585938 L 438.828125 141.585938 L 437.695313 128.441406 L 435.765625 128.441406 Z M 462.957031 137.398438 C 462.957031 141.167969 465.296875 144.019531 469.035156 144.019531 C 474.292969 144.019531 477.480469 139.675781 477.480469 134.625 C 477.480469 130.695313 475.304688 128.078125 471.433594 128.078125 C 466.242188 128.078125 462.957031 132.292969 462.957031 137.398438 Z M 465.023438 137.679688 C 465.023438 133.8125 466.980469 129.683594 471.1875 129.683594 C 474.140625 129.683594 475.429688 131.785156 475.429688 134.636719 C 475.429688 138.234375 473.226563 142.40625 469.285156 142.40625 C 466.632813 142.40625 465.023438 140.316406 465.023438 137.679688 Z M 484.019531 143.648438 L 486 143.648438 L 487.539063 136.15625 C 488.136719 133.4375 489.339844 130.054688 492.402344 130.054688 C 492.941406 130.054688 493.511719 130.109375 494.019531 130.304688 L 494.453125 128.308594 C 493.960938 128.210938 493.449219 128.078125 492.835938 128.078125 C 490.875 128.078125 489.542969 129.25 488.601563 130.730469 L 488.53125 130.730469 C 488.679688 130.214844 488.78125 129.410156 488.851563 128.441406 L 486.984375 128.441406 C 486.898438 129.410156 486.753906 130.304688 486.5625 131.164063 Z M 498.710938 143.648438 L 500.683594 143.648438 L 505.457031 121.300781 L 503.511719 121.300781 Z M 526.835938 121.300781 L 524.851563 121.300781 L 522.757813 131.253906 L 522.714844 131.253906 C 522.144531 129.175781 520.265625 128.078125 518.0625 128.078125 C 513.234375 128.078125 510.464844 133.277344 510.464844 137.519531 C 510.464844 140.929688 511.949219 144.019531 515.613281 144.019531 C 518.164063 144.019531 519.691406 142.875 520.796875 141.234375 L 520.851563 141.234375 C 520.65625 141.835938 520.480469 142.835938 520.386719 143.648438 L 522.324219 143.648438 C 522.386719 142.9375 522.554688 141.890625 522.832031 140.679688 Z M 512.515625 137.875 C 512.515625 134.359375 514.285156 129.683594 518.207031 129.683594 C 520.832031 129.683594 522.066406 131.839844 522.066406 134.519531 C 522.066406 137.902344 519.644531 142.40625 516.238281 142.40625 C 513.609375 142.40625 512.515625 140.386719 512.515625 137.875 Z M 530.222656 143.183594 C 531.699219 143.796875 533.066406 144.019531 534.644531 144.019531 C 537.609375 144.019531 540.761719 142.6875 540.761719 139.25 C 540.761719 135.210938 534.671875 134.882813 534.671875 132.292969 C 534.671875 130.171875 536.777344 129.683594 538.257813 129.683594 C 539.394531 129.683594 540.65625 130.027344 541.628906 130.597656 L 542.253906 128.839844 C 540.992188 128.324219 539.722656 128.078125 538.339844 128.078125 C 535.886719 128.078125 532.71875 129.320313 532.71875 132.320313 C 532.71875 136.199219 538.695313 136.054688 538.695313 139.367188 C 538.695313 141.730469 536.242188 142.40625 534.429688 142.40625 C 533.128906 142.40625 531.882813 141.96875 530.808594 141.277344 Z M 548.484375 143.648438 L 550.902344 143.648438 L 551.421875 141.152344 L 548.984375 141.152344 L 548.484375 143.648438 "/>
<path style=" stroke:none;fill-rule:nonzero;fill:rgb(13.699341%,12.199402%,12.5%);fill-opacity:1;" d="M 82.035156 203.566406 L 86.027344 180.246094 L 91.144531 180.246094 C 92.945313 180.246094 94.171875 180.324219 94.808594 180.457031 C 95.878906 180.734375 96.824219 181.257813 97.628906 182.03125 C 98.425781 182.828125 99.074219 183.882813 99.539063 185.191406 C 100 186.46875 100.246094 188.054688 100.246094 189.90625 C 100.246094 191.824219 100 193.613281 99.523438 195.265625 C 99.058594 196.890625 98.378906 198.328125 97.515625 199.542969 C 96.660156 200.769531 95.753906 201.664063 94.828125 202.222656 C 93.894531 202.777344 92.945313 203.140625 91.9375 203.359375 C 91.269531 203.488281 90.234375 203.566406 88.789063 203.566406 Z M 86.613281 199.808594 L 88.609375 199.808594 C 90.0625 199.808594 91.09375 199.703125 91.671875 199.515625 C 92.429688 199.25 93.15625 198.734375 93.824219 197.929688 C 94.492188 197.144531 95.082031 196.054688 95.550781 194.652344 C 96.050781 193.234375 96.292969 191.625 96.292969 189.773438 C 96.292969 188.253906 96.09375 187.054688 95.699219 186.160156 C 95.292969 185.296875 94.738281 184.710938 94.066406 184.402344 C 93.585938 184.203125 92.734375 184.082031 91.542969 184.082031 L 89.3125 184.082031 L 86.613281 199.808594 "/>
<path style=" stroke:none;fill-rule:nonzero;fill:rgb(13.699341%,12.199402%,12.5%);fill-opacity:1;" d="M 119.898438 196.527344 L 110.519531 196.527344 L 110.519531 196.980469 C 110.519531 198.078125 110.765625 199.011719 111.296875 199.6875 C 111.839844 200.371094 112.476563 200.699219 113.210938 200.699219 C 114.4375 200.699219 115.402344 199.90625 116.109375 198.34375 L 119.480469 199.058594 C 118.824219 200.6875 117.945313 201.914063 116.859375 202.730469 C 115.761719 203.554688 114.539063 203.945313 113.175781 203.945313 C 111.382813 203.945313 109.871094 203.230469 108.671875 201.851563 C 107.488281 200.421875 106.886719 198.53125 106.886719 196.117188 C 106.886719 193.535156 107.574219 191.238281 108.929688 189.265625 C 110.273438 187.285156 112.1875 186.28125 114.621094 186.28125 C 116.265625 186.28125 117.59375 186.90625 118.617188 188.164063 C 119.644531 189.398438 120.167969 191.199219 120.167969 193.558594 C 120.167969 194.667969 120.074219 195.648438 119.898438 196.527344 Z M 116.734375 193.730469 L 116.753906 193.277344 C 116.753906 192.015625 116.503906 191.066406 116.046875 190.464844 C 115.566406 189.839844 114.949219 189.546875 114.210938 189.546875 C 113.445313 189.546875 112.769531 189.878906 112.140625 190.585938 C 111.519531 191.296875 111.109375 192.34375 110.902344 193.730469 L 116.734375 193.730469 "/>
<g clip-path="url(#clip1)" clip-rule="nonzero">
<path style=" stroke:none;fill-rule:nonzero;fill:rgb(13.699341%,12.199402%,12.5%);fill-opacity:1;" d="M 129.222656 186.671875 L 132.839844 186.671875 L 132.535156 188.414063 C 133.3125 187.613281 134.007813 187.054688 134.640625 186.75 C 135.28125 186.441406 135.964844 186.28125 136.660156 186.28125 C 138.0625 186.28125 139.1875 186.90625 140.066406 188.109375 C 140.933594 189.320313 141.367188 191.121094 141.367188 193.558594 C 141.367188 196.652344 140.578125 199.25 139.0625 201.34375 C 137.789063 203.085938 136.296875 203.945313 134.59375 203.945313 C 132.78125 203.945313 131.433594 203.058594 130.523438 201.238281 L 128.976563 210.019531 L 125.21875 210.019531 Z M 131.527344 196.347656 C 131.527344 197.679688 131.777344 198.691406 132.296875 199.4375 C 132.804688 200.15625 133.40625 200.519531 134.0625 200.519531 C 134.605469 200.519531 135.132813 200.289063 135.664063 199.820313 C 136.183594 199.351563 136.644531 198.515625 137.074219 197.273438 C 137.492188 196.011719 137.703125 194.742188 137.703125 193.453125 C 137.703125 192.1875 137.46875 191.199219 136.992188 190.550781 C 136.496094 189.867188 135.894531 189.546875 135.183594 189.546875 C 134.621094 189.546875 134.082031 189.761719 133.5625 190.230469 C 133.039063 190.683594 132.5625 191.492188 132.148438 192.679688 C 131.730469 193.878906 131.527344 195.089844 131.527344 196.347656 "/>
</g>
<path style=" stroke:none;fill-rule:nonzero;fill:rgb(13.699341%,12.199402%,12.5%);fill-opacity:1;" d="M 153.296875 191.449219 L 149.636719 191.039063 C 150.070313 189.46875 150.820313 188.308594 151.898438 187.492188 C 152.976563 186.691406 154.355469 186.28125 156.003906 186.28125 C 157.679688 186.28125 158.992188 186.707031 159.902344 187.535156 C 160.816406 188.375 161.25 189.46875 161.25 190.863281 C 161.25 191.359375 161.207031 191.855469 161.128906 192.414063 C 161.035156 192.972656 160.722656 194.464844 160.171875 196.890625 C 159.714844 198.914063 159.484375 200.34375 159.484375 201.140625 C 159.484375 201.886719 159.609375 202.6875 159.855469 203.566406 L 156.128906 203.566406 C 155.96875 202.953125 155.878906 202.289063 155.855469 201.621094 C 155.3125 202.394531 154.714844 202.953125 154.019531 203.359375 C 153.320313 203.742188 152.65625 203.945313 151.960938 203.945313 C 150.878906 203.945313 149.992188 203.503906 149.242188 202.609375 C 148.519531 201.703125 148.148438 200.539063 148.148438 199.058594 C 148.148438 197.359375 148.585938 196.011719 149.433594 195.089844 C 150.304688 194.183594 151.734375 193.625 153.777344 193.453125 C 155.546875 193.234375 156.726563 193.027344 157.335938 192.773438 C 157.542969 192.121094 157.632813 191.625 157.632813 191.238281 C 157.632813 190.730469 157.46875 190.320313 157.121094 190.011719 C 156.773438 189.679688 156.296875 189.546875 155.699219 189.546875 C 154.394531 189.546875 153.585938 190.1875 153.296875 191.449219 Z M 156.726563 195.707031 C 156.515625 195.78125 156.207031 195.851563 155.839844 195.90625 C 154.148438 196.171875 153.011719 196.507813 152.484375 196.917969 C 151.949219 197.371094 151.667969 197.929688 151.667969 198.636719 C 151.667969 199.191406 151.832031 199.625 152.132813 199.996094 C 152.433594 200.34375 152.828125 200.519531 153.296875 200.519531 C 153.800781 200.519531 154.265625 200.371094 154.714844 200.066406 C 155.171875 199.785156 155.519531 199.394531 155.792969 198.878906 C 156.078125 198.34375 156.335938 197.476563 156.585938 196.304688 L 156.726563 195.707031 "/>
<path style=" stroke:none;fill-rule:nonzero;fill:rgb(13.699341%,12.199402%,12.5%);fill-opacity:1;" d="M 170.679688 186.671875 L 174.230469 186.671875 L 173.652344 189.949219 C 174.988281 187.523438 176.398438 186.28125 177.9375 186.28125 C 178.480469 186.28125 179.050781 186.441406 179.6875 186.75 L 178.257813 190.523438 C 177.917969 190.359375 177.542969 190.292969 177.175781 190.292969 C 176.589844 190.292969 176.035156 190.507813 175.515625 190.890625 C 174.734375 191.492188 174.136719 192.28125 173.714844 193.234375 C 173.300781 194.238281 172.871094 195.90625 172.480469 198.277344 L 171.535156 203.566406 L 167.773438 203.566406 L 170.679688 186.671875 "/>
<path style=" stroke:none;fill-rule:nonzero;fill:rgb(13.699341%,12.199402%,12.5%);fill-opacity:1;" d="M 184.445313 190.066406 L 185.0625 186.671875 L 186.988281 186.671875 L 187.460938 183.964844 L 191.835938 180.75 L 190.78125 186.671875 L 193.140625 186.671875 L 192.558594 190.066406 L 190.160156 190.066406 L 188.84375 197.105469 C 188.617188 198.382813 188.511719 199.128906 188.511719 199.332031 C 188.511719 199.703125 188.609375 199.996094 188.808594 200.171875 C 189.015625 200.359375 189.359375 200.433594 189.847656 200.433594 C 190.003906 200.433594 190.417969 200.40625 191.128906 200.34375 L 190.515625 203.714844 C 189.847656 203.886719 189.179688 203.945313 188.511719 203.945313 C 187.203125 203.945313 186.238281 203.652344 185.574219 203.058594 C 184.945313 202.464844 184.609375 201.59375 184.609375 200.433594 C 184.609375 199.90625 184.769531 198.707031 185.121094 196.863281 L 186.359375 190.066406 L 184.445313 190.066406 "/>
<path style=" stroke:none;fill-rule:nonzero;fill:rgb(13.699341%,12.199402%,12.5%);fill-opacity:1;" d="M 200.382813 186.671875 L 203.953125 186.671875 L 203.589844 188.722656 C 204.992188 187.097656 206.453125 186.28125 207.996094 186.28125 C 210.03125 186.28125 211.21875 187.285156 211.539063 189.265625 C 212.046875 188.402344 212.753906 187.683594 213.65625 187.125 C 214.574219 186.574219 215.488281 186.28125 216.433594 186.28125 C 217.519531 186.28125 218.390625 186.65625 219.03125 187.335938 C 219.675781 188.019531 219.988281 189 219.988281 190.242188 C 219.988281 190.828125 219.886719 191.824219 219.625 193.234375 L 217.847656 203.566406 L 214.078125 203.566406 L 215.847656 193.234375 C 216.070313 191.945313 216.191406 191.214844 216.191406 191.050781 C 216.191406 190.550781 216.0625 190.1875 215.824219 189.9375 C 215.578125 189.664063 215.226563 189.546875 214.796875 189.546875 C 213.894531 189.546875 213.070313 190.097656 212.332031 191.226563 C 211.738281 192.09375 211.253906 193.640625 210.867188 195.878906 L 209.558594 203.566406 L 205.78125 203.566406 L 207.527344 193.347656 C 207.726563 192.1875 207.832031 191.429688 207.832031 191.09375 C 207.832031 190.597656 207.703125 190.230469 207.4375 189.949219 C 207.179688 189.664063 206.839844 189.546875 206.433594 189.546875 C 205.867188 189.546875 205.316406 189.773438 204.71875 190.304688 C 204.132813 190.816406 203.667969 191.5625 203.335938 192.574219 C 203.117188 193.160156 202.875 194.226563 202.597656 195.808594 L 201.253906 203.566406 L 197.472656 203.566406 L 200.382813 186.671875 "/>
<path style=" stroke:none;fill-rule:nonzero;fill:rgb(13.699341%,12.199402%,12.5%);fill-opacity:1;" d="M 240.257813 196.527344 L 230.855469 196.527344 L 230.855469 196.980469 C 230.855469 198.078125 231.125 199.011719 231.65625 199.6875 C 232.175781 200.371094 232.820313 200.699219 233.570313 200.699219 C 234.777344 200.699219 235.761719 199.90625 236.457031 198.34375 L 239.835938 199.058594 C 239.164063 200.6875 238.289063 201.914063 237.207031 202.730469 C 236.113281 203.554688 234.882813 203.945313 233.527344 203.945313 C 231.710938 203.945313 230.207031 203.230469 229.019531 201.851563 C 227.835938 200.421875 227.234375 198.53125 227.234375 196.117188 C 227.234375 193.535156 227.914063 191.238281 229.269531 189.265625 C 230.613281 187.285156 232.527344 186.28125 234.96875 186.28125 C 236.605469 186.28125 237.941406 186.90625 238.957031 188.164063 C 239.992188 189.398438 240.507813 191.199219 240.507813 193.558594 C 240.507813 194.667969 240.421875 195.648438 240.257813 196.527344 Z M 237.070313 193.730469 L 237.097656 193.277344 C 237.097656 192.015625 236.863281 191.066406 236.394531 190.464844 C 235.917969 189.839844 235.296875 189.546875 234.546875 189.546875 C 233.789063 189.546875 233.097656 189.878906 232.484375 190.585938 C 231.855469 191.296875 231.441406 192.34375 231.234375 193.730469 L 237.070313 193.730469 "/>
<path style=" stroke:none;fill-rule:nonzero;fill:rgb(13.699341%,12.199402%,12.5%);fill-opacity:1;" d="M 249.769531 186.671875 L 253.386719 186.671875 L 253.007813 188.867188 C 253.929688 187.90625 254.769531 187.242188 255.535156 186.851563 C 256.300781 186.46875 257.09375 186.28125 257.894531 186.28125 C 258.992188 186.28125 259.886719 186.683594 260.550781 187.453125 C 261.207031 188.242188 261.558594 189.28125 261.558594 190.628906 C 261.558594 191.226563 261.410156 192.335938 261.15625 193.996094 L 259.507813 203.566406 L 255.738281 203.566406 L 257.394531 193.996094 C 257.636719 192.574219 257.75 191.722656 257.75 191.429688 C 257.75 190.800781 257.59375 190.335938 257.3125 190.011719 C 257.027344 189.691406 256.660156 189.546875 256.203125 189.546875 C 255.691406 189.546875 255.171875 189.71875 254.636719 190.132813 C 253.886719 190.71875 253.328125 191.386719 252.964844 192.1875 C 252.59375 192.984375 252.222656 194.449219 251.84375 196.625 L 250.636719 203.566406 L 246.855469 203.566406 L 249.769531 186.671875 "/>
<path style=" stroke:none;fill-rule:nonzero;fill:rgb(13.699341%,12.199402%,12.5%);fill-opacity:1;" d="M 269.105469 190.066406 L 269.734375 186.671875 L 271.652344 186.671875 L 272.121094 183.964844 L 276.53125 180.75 L 275.429688 186.671875 L 277.800781 186.671875 L 277.226563 190.066406 L 274.820313 190.066406 L 273.515625 197.105469 C 273.292969 198.382813 273.183594 199.128906 273.183594 199.332031 C 273.183594 199.703125 273.277344 199.996094 273.488281 200.171875 C 273.683594 200.359375 274.019531 200.433594 274.519531 200.433594 C 274.675781 200.433594 275.09375 200.40625 275.804688 200.34375 L 275.183594 203.714844 C 274.519531 203.886719 273.859375 203.945313 273.183594 203.945313 C 271.871094 203.945313 270.898438 203.652344 270.253906 203.058594 C 269.601563 202.464844 269.28125 201.59375 269.28125 200.433594 C 269.28125 199.90625 269.449219 198.707031 269.785156 196.863281 L 271.03125 190.066406 L 269.105469 190.066406 "/>
<path style=" stroke:none;fill-rule:nonzero;fill:rgb(13.699341%,12.199402%,12.5%);fill-opacity:1;" d="M 295.671875 196.542969 C 295.671875 193.785156 296.3125 191.441406 297.554688 189.46875 C 298.949219 187.363281 300.960938 186.28125 303.597656 186.28125 C 305.5625 186.28125 307.128906 186.964844 308.304688 188.296875 C 309.492188 189.65625 310.0625 191.492188 310.0625 193.878906 C 310.0625 196.6875 309.339844 199.058594 307.867188 201.007813 C 306.40625 202.980469 304.503906 203.945313 302.152344 203.945313 C 300.234375 203.945313 298.679688 203.300781 297.484375 201.96875 C 296.285156 200.636719 295.671875 198.824219 295.671875 196.542969 Z M 306.332031 193.292969 C 306.332031 192.1875 306.074219 191.296875 305.5625 190.683594 C 305.027344 190.042969 304.371094 189.71875 303.574219 189.71875 C 302.894531 189.71875 302.269531 189.964844 301.6875 190.425781 C 301.085938 190.890625 300.570313 191.722656 300.136719 192.851563 C 299.683594 194.011719 299.46875 195.195313 299.46875 196.453125 C 299.46875 197.679688 299.746094 198.675781 300.277344 199.382813 C 300.820313 200.066406 301.496094 200.40625 302.292969 200.40625 C 303.3125 200.40625 304.148438 199.878906 304.867188 198.796875 C 305.863281 197.316406 306.332031 195.488281 306.332031 193.292969 "/>
<path style=" stroke:none;fill-rule:nonzero;fill:rgb(13.699341%,12.199402%,12.5%);fill-opacity:1;" d="M 326.316406 186.671875 L 325.730469 190.011719 L 323.101563 190.011719 L 320.769531 203.566406 L 316.996094 203.566406 L 319.320313 190.011719 L 317.25 190.011719 L 317.8125 186.671875 L 319.898438 186.671875 L 320.191406 184.933594 C 320.464844 183.378906 320.75 182.296875 321.066406 181.726563 C 321.378906 181.140625 321.816406 180.683594 322.425781 180.351563 C 322.988281 180.03125 323.703125 179.855469 324.511719 179.855469 C 325.667969 179.855469 326.875 180.113281 328.152344 180.628906 L 327.449219 183.894531 C 326.550781 183.511719 325.816406 183.335938 325.257813 183.335938 C 324.910156 183.335938 324.617188 183.457031 324.394531 183.722656 C 324.21875 183.9375 324.050781 184.507813 323.878906 185.5 L 323.6875 186.671875 L 326.316406 186.671875 "/>
<path style=" stroke:none;fill-rule:nonzero;fill:rgb(13.699341%,12.199402%,12.5%);fill-opacity:1;" d="M 351.726563 203.566406 L 347.769531 203.566406 L 351.125 184.152344 L 345.363281 184.152344 L 346.03125 180.246094 L 361.234375 180.246094 L 360.578125 184.152344 L 355.058594 184.152344 L 351.726563 203.566406 "/>
<path style=" stroke:none;fill-rule:nonzero;fill:rgb(13.699341%,12.199402%,12.5%);fill-opacity:1;" d="M 363.082031 196.542969 C 363.082031 193.785156 363.703125 191.441406 364.945313 189.46875 C 366.347656 187.363281 368.355469 186.28125 371 186.28125 C 372.972656 186.28125 374.527344 186.964844 375.714844 188.296875 C 376.882813 189.65625 377.460938 191.492188 377.460938 193.878906 C 377.460938 196.6875 376.726563 199.058594 375.269531 201.007813 C 373.8125 202.980469 371.914063 203.945313 369.550781 203.945313 C 367.644531 203.945313 366.074219 203.300781 364.875 201.96875 C 363.683594 200.636719 363.082031 198.824219 363.082031 196.542969 Z M 373.742188 193.292969 C 373.742188 192.1875 373.46875 191.296875 372.960938 190.683594 C 372.4375 190.042969 371.773438 189.71875 370.972656 189.71875 C 370.296875 189.71875 369.683594 189.964844 369.074219 190.425781 C 368.488281 190.890625 367.972656 191.722656 367.53125 192.851563 C 367.101563 194.011719 366.863281 195.195313 366.863281 196.453125 C 366.863281 197.679688 367.140625 198.675781 367.671875 199.382813 C 368.214844 200.066406 368.898438 200.40625 369.695313 200.40625 C 370.707031 200.40625 371.570313 199.878906 372.277344 198.796875 C 373.253906 197.316406 373.742188 195.488281 373.742188 193.292969 "/>
<path style=" stroke:none;fill-rule:nonzero;fill:rgb(13.699341%,12.199402%,12.5%);fill-opacity:1;" d="M 386.632813 186.671875 L 390.40625 186.671875 L 388.691406 196.640625 C 388.496094 197.839844 388.398438 198.59375 388.398438 198.878906 C 388.398438 199.410156 388.53125 199.835938 388.84375 200.199219 C 389.132813 200.539063 389.492188 200.699219 389.925781 200.699219 C 390.441406 200.699219 390.945313 200.519531 391.425781 200.171875 C 392.128906 199.660156 392.667969 199.011719 393.0625 198.222656 C 393.488281 197.40625 393.855469 196.261719 394.125 194.726563 L 395.640625 186.671875 L 399.421875 186.671875 L 396.296875 203.566406 L 392.734375 203.566406 L 393.15625 201.273438 C 391.621094 203.058594 389.976563 203.945313 388.203125 203.945313 C 387.101563 203.945313 386.191406 203.566406 385.558594 202.777344 C 384.882813 202.011719 384.574219 200.929688 384.574219 199.554688 C 384.574219 198.96875 384.707031 197.839844 385.007813 196.089844 L 386.632813 186.671875 "/>
<path style=" stroke:none;fill-rule:nonzero;fill:rgb(13.699341%,12.199402%,12.5%);fill-opacity:1;" d="M 408.175781 186.671875 L 411.710938 186.671875 L 411.144531 189.949219 C 412.464844 187.523438 413.890625 186.28125 415.4375 186.28125 C 415.960938 186.28125 416.5625 186.441406 417.179688 186.75 L 415.75 190.523438 C 415.402344 190.359375 415.054688 190.292969 414.671875 190.292969 C 414.085938 190.292969 413.523438 190.507813 413.011719 190.890625 C 412.234375 191.492188 411.621094 192.28125 411.195313 193.234375 C 410.785156 194.238281 410.378906 195.90625 409.960938 198.277344 L 409.03125 203.566406 L 405.265625 203.566406 L 408.175781 186.671875 "/>
<path style=" stroke:none;fill-rule:nonzero;fill:rgb(13.699341%,12.199402%,12.5%);fill-opacity:1;" d="M 424.121094 186.671875 L 427.875 186.671875 L 424.992188 203.566406 L 421.214844 203.566406 Z M 425.21875 180.246094 L 428.992188 180.246094 L 428.273438 184.390625 L 424.519531 184.390625 L 425.21875 180.246094 "/>
<path style=" stroke:none;fill-rule:nonzero;fill:rgb(13.699341%,12.199402%,12.5%);fill-opacity:1;" d="M 433.351563 198.863281 L 436.972656 198.117188 C 437.285156 199.101563 437.695313 199.757813 438.179688 200.128906 C 438.675781 200.519531 439.320313 200.699219 440.125 200.699219 C 440.894531 200.699219 441.527344 200.519531 442.015625 200.140625 C 442.488281 199.785156 442.726563 199.351563 442.726563 198.824219 C 442.726563 198.503906 442.636719 198.195313 442.421875 197.972656 C 442.210938 197.757813 441.699219 197.476563 440.894531 197.15625 C 438.675781 196.261719 437.277344 195.558594 436.734375 195.035156 C 435.882813 194.199219 435.4375 193.117188 435.4375 191.75 C 435.4375 190.171875 436.003906 188.867188 437.132813 187.84375 C 438.246094 186.804688 439.777344 186.28125 441.742188 186.28125 C 445.058594 186.28125 446.976563 187.761719 447.5 190.71875 L 444.039063 191.449219 C 443.632813 190.109375 442.671875 189.441406 441.15625 189.441406 C 440.445313 189.441406 439.894531 189.585938 439.53125 189.878906 C 439.160156 190.1875 438.976563 190.550781 438.976563 190.988281 C 438.976563 191.386719 439.121094 191.722656 439.40625 191.972656 C 439.628906 192.175781 440.355469 192.480469 441.589844 192.933594 C 443.394531 193.558594 444.582031 194.183594 445.203125 194.796875 C 446.109375 195.664063 446.550781 196.746094 446.550781 198.007813 C 446.550781 199.71875 445.972656 201.152344 444.800781 202.261719 C 443.65625 203.378906 442.136719 203.945313 440.214844 203.945313 C 436.457031 203.945313 434.144531 202.261719 433.351563 198.863281 "/>
<path style=" stroke:none;fill-rule:nonzero;fill:rgb(13.699341%,12.199402%,12.5%);fill-opacity:1;" d="M 456.492188 186.671875 L 460.054688 186.671875 L 459.707031 188.722656 C 461.09375 187.097656 462.554688 186.28125 464.089844 186.28125 C 466.140625 186.28125 467.316406 187.285156 467.644531 189.265625 C 468.140625 188.402344 468.851563 187.683594 469.761719 187.125 C 470.671875 186.574219 471.601563 186.28125 472.527344 186.28125 C 473.617188 186.28125 474.496094 186.65625 475.117188 187.335938 C 475.777344 188.019531 476.09375 189 476.09375 190.242188 C 476.09375 190.828125 475.976563 191.824219 475.730469 193.234375 L 473.953125 203.566406 L 470.183594 203.566406 L 471.957031 193.234375 C 472.179688 191.945313 472.289063 191.214844 472.289063 191.050781 C 472.289063 190.550781 472.160156 190.1875 471.921875 189.9375 C 471.664063 189.664063 471.328125 189.546875 470.894531 189.546875 C 469.980469 189.546875 469.152344 190.097656 468.425781 191.226563 C 467.855469 192.09375 467.351563 193.640625 466.976563 195.878906 L 465.65625 203.566406 L 461.878906 203.566406 L 463.628906 193.347656 C 463.835938 192.1875 463.941406 191.429688 463.941406 191.09375 C 463.941406 190.597656 463.796875 190.230469 463.527344 189.949219 C 463.269531 189.664063 462.9375 189.546875 462.511719 189.546875 C 461.96875 189.546875 461.410156 189.773438 460.808594 190.304688 C 460.238281 190.816406 459.761719 191.5625 459.421875 192.574219 C 459.21875 193.160156 458.96875 194.226563 458.6875 195.808594 L 457.34375 203.566406 L 453.566406 203.566406 L 456.492188 186.671875 "/>
<g clip-path="url(#clip2)" clip-rule="nonzero">
<path style=" stroke:none;fill-rule:nonzero;fill:rgb(13.699341%,12.199402%,12.5%);fill-opacity:1;" d="M 0 159.535156 L 558.132813 159.535156 L 558.132813 155.976563 L 0 155.976563 L 0 159.535156 "/>
</g>
</g>
</svg>